<svg width="257" height="96" viewBox="0 0 257 96" fill="none" xmlns="http://www.w3.org/2000/svg">
<rect width="257" height="96" fill="#0F3263"/>
<path fill-rule="evenodd" clip-rule="evenodd" d="M86.8661 55.3476C83.1042 55.3476 79.7665 52.5473 79.7665 48.2593C79.7665 43.9422 83.1042 41.1418 86.8661 41.1418C90.6281 41.1418 93.9658 43.9422 93.9658 48.2593C93.9658 52.5473 90.6281 55.3476 86.8661 55.3476ZM86.8661 51.7889C88.7047 51.7889 90.2038 50.3596 90.2038 48.2593C90.2038 46.1299 88.7047 44.7006 86.8661 44.7006C85.0276 44.7006 83.5285 46.1299 83.5285 48.2593C83.5285 50.3596 85.0276 51.7889 86.8661 51.7889ZM103.436 41.1418C106.83 41.1418 109.913 43.8838 109.913 48.2593C109.913 52.6348 106.83 55.3476 103.436 55.3476C101.937 55.3476 100.126 54.7642 99.1931 53.3932V61.765H95.4877V41.4919H99.1931V43.1254C100.126 41.7544 101.937 41.1418 103.436 41.1418ZM102.729 51.7597C104.596 51.7597 106.123 50.2721 106.123 48.2593C106.123 46.2758 104.596 44.7298 102.729 44.7298C100.918 44.7298 99.3062 46.1883 99.3062 48.2593C99.3062 50.3596 101.003 51.7597 102.729 51.7597ZM124.531 48.0551C124.531 48.4343 124.503 48.9011 124.475 49.5136H114.518C114.914 51.0888 116.159 51.9639 117.941 51.9639C119.27 51.9639 120.6 51.4097 121.392 50.4471L123.57 52.6932C122.325 54.4142 120.006 55.3476 117.686 55.3476C113.641 55.3476 110.671 52.489 110.671 48.2885C110.671 43.8838 113.896 41.1418 117.686 41.1418C121.448 41.1418 124.531 43.8838 124.531 48.0551ZM114.518 47.0342H120.826C120.713 45.4298 119.412 44.4672 117.743 44.4672C116.244 44.4672 114.914 45.1965 114.518 47.0342ZM133.662 41.1418C132.361 41.1418 130.268 41.9294 129.702 43.7671V41.4919H125.997V55.0851H129.702V48.1135C129.702 45.634 131.342 44.9048 132.672 44.9048C133.945 44.9048 135.189 45.8674 135.189 48.026V55.0851H138.895V47.6176C138.923 43.5338 137.113 41.1418 133.662 41.1418ZM148.787 41.171C152.181 41.171 155.265 43.8838 155.265 48.2593C155.265 52.6348 152.181 55.3476 148.787 55.3476C147.288 55.3476 145.478 54.7642 144.544 53.3932V55.0851H140.839V34.2285H144.544V43.1254C145.478 41.7544 147.288 41.171 148.787 41.171ZM148.08 51.7889C149.947 51.7889 151.474 50.2429 151.474 48.2593C151.474 46.2466 149.947 44.7589 148.08 44.7589C146.355 44.7589 144.658 46.1591 144.658 48.2593C144.658 50.3304 146.27 51.7889 148.08 51.7889ZM166.715 41.4919H170.42V55.0851H166.715V53.3932C165.781 54.7351 163.943 55.3476 162.472 55.3476C159.078 55.3476 155.994 52.6348 155.994 48.2593C155.994 43.8838 159.078 41.171 162.472 41.171C163.999 41.171 165.781 41.7544 166.715 43.1254V41.4919ZM163.179 51.7889C164.989 51.7889 166.601 50.3304 166.601 48.2593C166.601 46.1591 164.904 44.7589 163.179 44.7589C161.312 44.7589 159.756 46.2466 159.756 48.2593C159.756 50.2429 161.312 51.7889 163.179 51.7889ZM181.276 41.4919H185.264L177.118 61.765H173.158L176.27 53.8016L171.065 41.4919H175.138L178.25 49.3386L181.276 41.4919ZM198.581 48.0551C198.581 48.4343 198.553 48.9011 198.525 49.5136H188.568C188.964 51.0888 190.209 51.9639 191.991 51.9639C193.32 51.9639 194.65 51.4097 195.442 50.4471L197.619 52.6932C196.375 54.4142 194.056 55.3476 191.736 55.3476C187.691 55.3476 184.721 52.489 184.721 48.2885C184.721 43.8838 187.946 41.1418 191.736 41.1418C195.498 41.1418 198.581 43.8838 198.581 48.0551ZM188.568 47.0342H194.876C194.763 45.4298 193.462 44.4672 191.793 44.4672C190.294 44.4672 188.964 45.1965 188.568 47.0342ZM204.714 55.3476C207.429 55.3476 210.258 53.9475 210.258 51.0888C210.258 49.9804 209.862 47.9385 206.694 47.0634L204.516 46.48C203.78 46.2758 203.215 45.9549 203.215 45.3132C203.215 44.6131 203.893 44.1755 204.742 44.1755C205.619 44.1755 206.354 44.6714 206.354 45.5757H209.89C209.918 42.367 207.09 41.1418 204.685 41.1418C201.631 41.1418 199.509 43.0962 199.509 45.1965C199.509 46.6258 199.962 48.5802 203.356 49.5136L205.11 49.9512C206.1 50.2137 206.552 50.5054 206.552 51.0888C206.552 51.8764 205.732 52.3431 204.657 52.3431C203.356 52.3431 202.705 51.4972 202.705 50.7096H199.226C199.255 53.7141 201.942 55.3476 204.714 55.3476Z" fill="white"/>
<path fill-rule="evenodd" clip-rule="evenodd" d="M66.1318 34.3839L50.869 39.7578V54.8045L56.3685 52.8682V43.5842L66.1318 40.1466V34.3839Z" fill="#267EF8"/>
<path fill-rule="evenodd" clip-rule="evenodd" d="M58.6501 44.996L73.9132 39.6221V54.669L58.6501 60.0429V44.996Z" fill="white"/>
</svg>
